<svg width="112" height="112" version="1.1" viewBox="0 0 112 112" xmlns="http://www.w3.org/2000/svg">
	<g>
		<path d="m0-0v24c0 7.2 2.74 14.4 8.14 19.9 3.32 3.36 4.95 7.71 4.95 12.1 0 4.39-1.63 8.73-4.95 12.1-5.41 5.47-8.14 12.7-8.14 19.9v24h24c7.2 0 14.4-2.74 19.9-8.14 3.36-3.32 7.71-4.95 12.1-4.95 4.39 0 8.73 1.63 12.1 4.95 5.47 5.41 12.7 8.14 19.9 8.14h24v-24c0-7.2-2.74-14.4-8.14-19.9-3.32-3.36-4.95-7.71-4.95-12.1 0-4.39 1.63-8.73 4.95-12.1 5.41-5.47 8.14-12.7 8.14-19.9v-24h-24c-7.2 0-14.4 2.74-19.9 8.14-3.36 3.32-7.71 4.95-12.1 4.95-4.39 0-8.73-1.63-12.1-4.95-5.47-5.41-12.7-8.14-19.9-8.14h-24zm10.9 10.9h13.1c4.39 0 8.73 1.63 12.1 4.95 5.47 5.41 12.7 8.14 19.9 8.14 7.2-1e-5 14.4-2.74 19.9-8.14 3.36-3.32 7.71-4.95 12.1-4.95h13.1v13.1c0 4.39-1.63 8.73-4.95 12.1-5.41 5.47-8.14 12.7-8.14 19.9 1e-5 7.2 2.74 14.4 8.14 19.9 3.32 3.36 4.95 7.71 4.95 12.1v13.1h-13.1c-4.39 0-8.73-1.63-12.1-4.95-5.47-5.41-12.7-8.14-19.9-8.14-7.2 1e-5 -14.4 2.74-19.9 8.14-3.36 3.32-7.71 4.95-12.1 4.95h-13.1v-13.1c0-4.39 1.63-8.73 4.95-12.1 5.41-5.47 8.14-12.7 8.14-19.9-1e-5 -7.2-2.74-14.4-8.14-19.9-3.32-3.36-4.95-7.71-4.95-12.1z"/>
	</g>
</svg>
