<svg width="46.2" height="46.2" version="1.1" viewBox="0 0 46.2 46.2" xmlns="http://www.w3.org/2000/svg">
	<g>
		<path d="m11-1.2e-6c-2.82 0-5.66 1.09-7.8 3.23-2.14 2.14-3.23 4.98-3.23 7.8 0 2.82 1.09 5.66 3.23 7.8 2.38 2.38 2.38 6.16 0 8.54-2.14 2.14-3.23 4.98-3.23 7.8s1.09 5.66 3.23 7.8c2.14 2.14 4.98 3.23 7.8 3.23 2.82 0 5.66-1.09 7.8-3.23 2.38-2.38 6.16-2.38 8.54 0 2.14 2.14 4.98 3.23 7.8 3.23s5.66-1.09 7.8-3.23c2.14-2.14 3.23-4.98 3.23-7.8s-1.09-5.66-3.23-7.8c-2.38-2.38-2.38-6.16 0-8.54 2.14-2.14 3.23-4.98 3.23-7.8 0-2.82-1.09-5.66-3.23-7.8-2.14-2.14-4.98-3.23-7.8-3.23s-5.66 1.09-7.8 3.23c-2.38 2.38-6.16 2.38-8.54 0-2.14-2.14-4.98-3.23-7.8-3.23zm0 5c1.55 0 3.08 0.579 4.27 1.77 4.29 4.29 11.3 4.29 15.6 0 1.19-1.19 2.72-1.77 4.27-1.77s3.08 0.579 4.27 1.77c1.19 1.19 1.77 2.72 1.77 4.27 0 1.55-0.579 3.08-1.77 4.27-4.29 4.29-4.29 11.3 0 15.6 1.19 1.19 1.77 2.72 1.77 4.27s-0.579 3.08-1.77 4.27c-1.19 1.19-2.72 1.77-4.27 1.77-1.55 0-3.08-0.579-4.27-1.77-4.29-4.29-11.3-4.29-15.6 0-1.19 1.19-2.72 1.77-4.27 1.77-1.55 0-3.08-0.579-4.27-1.77-1.19-1.19-1.77-2.72-1.77-4.27s0.579-3.08 1.77-4.27c4.29-4.29 4.29-11.3 0-15.6-1.19-1.19-1.77-2.72-1.77-4.27 0-1.55 0.579-3.08 1.77-4.27s2.72-1.77 4.27-1.77z"/>
	</g>
</svg>
